<?xml version="1.0" encoding="UTF-8" standalone="no"?>
<!DOCTYPE svg PUBLIC "-//W3C//DTD SVG 1.1//EN"
"http://www.w3.org/Graphics/SVG/1.1/DTD/svg11.dtd">
<svg viewBox="0 0 935 1210" version="1.1" xmlns="http://www.w3.org/2000/svg" xmlns:xlink="http://www.w3.org/1999/xlink">
<defs>
<style type="text/css"><![CDATA[
.g1_3{
}
]]></style>
</defs>
<path fill-rule="evenodd" d="M634.8,111.4l0,0.1l-548,0l-0.2,-0.1l0,-0.2l548.3,0l-0.1,0.2Z" class="g1_3" />
<path fill-rule="evenodd" d="M848.5,111.4l0,0.1l-213.6,0l-0.1,-0.1l0,-0.2l213.9,0l-0.2,0.2Z" class="g1_3" />
<path fill-rule="evenodd" d="M634.8,134l0.1,0.1l-548.3,0l0,-0.1l0.2,-0.2l548,0l0,0.2Z" class="g1_3" />
<path fill-rule="evenodd" d="M848.5,134l0.2,0.1l-213.9,0l0,-0.1l0.1,-0.2l213.6,0l0,0.2Z" class="g1_3" />
<path fill-rule="evenodd" d="M86.6,111.4l0.2,0.1l0,22.3L86.6,134l0,0.1l0,-22.9l0,0.2Z" class="g1_3" />
<path fill-rule="evenodd" d="M634.8,111.4l0.1,0.1l0,22.3l-0.1,0.2l0,-0.2l0,-22.3l0,-0.1Z" class="g1_3" />
<path fill-rule="evenodd" d="M848.5,111.4l0.2,-0.2l0,22.9L848.5,134l0,-0.2l0,-22.3l0,-0.1Z" class="g1_3" />
<path fill-rule="evenodd" d="M728.3,169.3l0,0.1l-641.5,0l-0.2,-0.1l0,-0.2l641.8,0l-0.1,0.2Z" class="g1_3" />
<path fill-rule="evenodd" d="M827.7,169.3l0,0.1l-99.3,0l-0.1,-0.1l0,-0.2l99.6,0l-0.2,0.2Z" class="g1_3" />
<path fill-rule="evenodd" d="M728.3,216.5l0.1,0.1l-641.8,0l0,-0.1l0.2,-0.2l641.5,0l0,0.2Z" class="g1_3" />
<path fill-rule="evenodd" d="M827.7,216.5l0.2,0.1l-99.6,0l0,-0.1l0.1,-0.2l99.3,0l0,0.2Z" class="g1_3" />
<path fill-rule="evenodd" d="M86.6,169.3l0.2,0.1l0,46.9l-0.2,0.2l0,0.1l0,-47.5l0,0.2Z" class="g1_3" />
<path fill-rule="evenodd" d="M728.3,169.3l0.1,0.1l0,46.9l-0.1,0.2l0,-0.2l0,-46.9l0,-0.1Z" class="g1_3" />
<path fill-rule="evenodd" d="M827.7,169.3l0.2,-0.2l0,47.5l-0.2,-0.1l0,-0.2l0,-46.9l0,-0.1Z" class="g1_3" />
<path fill-rule="evenodd" d="M727.7,427.5l0,0.1l-640.9,0l-0.2,-0.1l0,-0.2l641.2,0l-0.1,0.2Z" class="g1_3" />
<path fill-rule="evenodd" d="M827.7,427.5l0,0.1l-99.9,0l-0.1,-0.1l0,-0.2l100.2,0l-0.2,0.2Z" class="g1_3" />
<path fill-rule="evenodd" d="M727.7,474.7l0.1,0.1l-641.2,0l0,-0.1l0.2,-0.2l640.9,0l0,0.2Z" class="g1_3" />
<path fill-rule="evenodd" d="M827.7,474.7l0.2,0.1l-100.2,0l0,-0.1l0.1,-0.2l99.9,0l0,0.2Z" class="g1_3" />
<path fill-rule="evenodd" d="M86.6,427.5l0.2,0.1l0,46.9l-0.2,0.2l0,0.1l0,-47.5l0,0.2Z" class="g1_3" />
<path fill-rule="evenodd" d="M727.7,427.5l0.1,0.1l0,46.9l-0.1,0.2l0,-0.2l0,-46.9l0,-0.1Z" class="g1_3" />
<path fill-rule="evenodd" d="M827.7,427.5l0.2,-0.2l0,47.5l-0.2,-0.1l0,-0.2l0,-46.9l0,-0.1Z" class="g1_3" />
</svg>